<svg width="17" height="19" viewBox="0 0 17 19" fill="none" xmlns="http://www.w3.org/2000/svg">
<path d="M3.45508 18.4961C2.53516 18.4961 1.84375 18.2676 1.38086 17.8105C0.923828 17.3594 0.695312 16.6797 0.695312 15.7715V6.6748C0.695312 5.7666 0.923828 5.08691 1.38086 4.63574C1.84375 4.17871 2.53516 3.9502 3.45508 3.9502H13.5361C14.4502 3.9502 15.1387 4.17871 15.6016 4.63574C16.0645 5.08691 16.2959 5.7666 16.2959 6.6748V15.7715C16.2959 16.6797 16.0762 17.3594 15.6367 17.8105C15.1973 18.2676 14.585 18.4961 13.7998 18.4961H3.45508ZM3.47266 17.0811H13.7734C14.0781 17.0811 14.3389 16.9639 14.5557 16.7295C14.7725 16.501 14.8809 16.1582 14.8809 15.7012V6.74512C14.8809 6.28809 14.7607 5.94531 14.5205 5.7168C14.2803 5.48242 13.9434 5.36523 13.5098 5.36523H3.47266C3.0332 5.36523 2.69629 5.48242 2.46191 5.7168C2.22754 5.94531 2.11035 6.28809 2.11035 6.74512V15.7012C2.11035 16.1582 2.22754 16.501 2.46191 16.7295C2.69629 16.9639 3.0332 17.0811 3.47266 17.0811ZM5.02832 4.29297C5.02832 3.64258 5.18066 3.05664 5.48535 2.53516C5.79004 2.00781 6.20312 1.58887 6.72461 1.27832C7.24609 0.967773 7.83496 0.8125 8.49121 0.8125C9.14746 0.8125 9.73633 0.967773 10.2578 1.27832C10.7852 1.58887 11.2012 2.00781 11.5059 2.53516C11.8105 3.05664 11.9629 3.64258 11.9629 4.29297L10.5479 4.30176C10.5479 3.87988 10.46 3.50781 10.2842 3.18555C10.1143 2.86328 9.87402 2.61133 9.56348 2.42969C9.25879 2.24219 8.90137 2.14844 8.49121 2.14844C8.08691 2.14844 7.72949 2.24219 7.41895 2.42969C7.11426 2.61133 6.87402 2.86328 6.69824 3.18555C6.52832 3.50781 6.44336 3.87988 6.44336 4.30176L5.02832 4.29297Z" fill="#1A1A1A"/>
</svg>
