<svg width="22" height="20" viewBox="0 0 22 20" fill="none" xmlns="http://www.w3.org/2000/svg">
<path d="M8.45996 18.2393V11.8408C8.45996 11.6416 8.52148 11.4805 8.64453 11.3574C8.76758 11.2344 8.93164 11.1729 9.13672 11.1729H12.8633C13.0625 11.1729 13.2236 11.2344 13.3467 11.3574C13.4697 11.4805 13.5312 11.6416 13.5312 11.8408V18.2393H8.45996ZM5.02344 19.1445C4.39648 19.1445 3.90723 18.9746 3.55566 18.6348C3.20996 18.2949 3.03711 17.8174 3.03711 17.2021V7.49023L4.45215 6.53223V16.8418C4.45215 17.1289 4.52539 17.3486 4.67188 17.501C4.82422 17.6533 5.04102 17.7295 5.32227 17.7295H16.6162C16.8975 17.7295 17.1113 17.6533 17.2578 17.501C17.4043 17.3486 17.4775 17.1289 17.4775 16.8418V6.52344L18.8926 7.49023V17.2021C18.8926 17.8174 18.7197 18.2949 18.374 18.6348C18.0283 18.9746 17.542 19.1445 16.915 19.1445H5.02344ZM0.505859 9.3623C0.505859 9.13379 0.599609 8.94336 0.787109 8.79102L9.94531 1.10059C10.2734 0.825195 10.625 0.6875 11 0.6875C11.3809 0.6875 11.7354 0.825195 12.0635 1.10059L21.2129 8.79102C21.3945 8.94336 21.4854 9.14258 21.4854 9.38867C21.4854 9.59961 21.4121 9.7666 21.2656 9.88965C21.1191 10.0068 20.9434 10.0654 20.7383 10.0654C20.6152 10.0654 20.501 10.0361 20.3955 9.97754C20.2959 9.91895 20.2021 9.85449 20.1143 9.78418L11.3164 2.40137C11.2168 2.31348 11.1113 2.26953 11 2.26953C10.8945 2.26953 10.792 2.31348 10.6924 2.40137L1.89453 9.78418C1.80078 9.85449 1.70117 9.91895 1.5957 9.97754C1.49609 10.0361 1.38477 10.0654 1.26172 10.0654C1.02734 10.0654 0.842773 9.99512 0.708008 9.85449C0.573242 9.70801 0.505859 9.54395 0.505859 9.3623ZM16.6865 5.39844V3.20117C16.6865 3.00781 16.7451 2.85547 16.8623 2.74414C16.9795 2.62695 17.1318 2.56836 17.3193 2.56836H18.2598C18.4531 2.56836 18.6055 2.62695 18.7168 2.74414C18.834 2.85547 18.8926 3.00781 18.8926 3.20117V7.26172L16.6865 5.39844Z" fill="#1A1A1A"/>
</svg>
