<svg width="21" height="20" viewBox="0 0 21 20" fill="none" xmlns="http://www.w3.org/2000/svg">
<path d="M10.4912 18.0566C10.3799 18.0566 10.2715 18.0537 10.166 18.0479C10.0605 18.0479 9.95508 18.042 9.84961 18.0303L9.36621 18.9531C9.31348 19.0586 9.2373 19.1348 9.1377 19.1816C9.03809 19.2344 8.92676 19.249 8.80371 19.2256C8.68652 19.2021 8.58984 19.1494 8.51367 19.0674C8.44336 18.9854 8.39648 18.8828 8.37305 18.7598L8.21484 17.749C8.00977 17.6904 7.80762 17.623 7.6084 17.5469C7.41504 17.4766 7.21875 17.4004 7.01953 17.3184L6.27246 17.9863C6.17871 18.0684 6.07617 18.1182 5.96484 18.1357C5.85352 18.1533 5.73633 18.1299 5.61328 18.0654C5.51367 18.0068 5.44336 17.9248 5.40234 17.8193C5.36719 17.7139 5.36133 17.5996 5.38477 17.4766L5.57812 16.4834C5.41406 16.3604 5.25 16.2314 5.08594 16.0967C4.92188 15.9619 4.76367 15.8213 4.61133 15.6748L3.68848 16.0615C3.56543 16.1143 3.44824 16.126 3.33691 16.0967C3.22559 16.0674 3.12598 16 3.03809 15.8945C2.96777 15.8066 2.92676 15.707 2.91504 15.5957C2.90918 15.4785 2.93848 15.3672 3.00293 15.2617L3.53906 14.3916C3.42188 14.2217 3.31055 14.0459 3.20508 13.8643C3.10547 13.6768 3.00586 13.4863 2.90625 13.293L1.88672 13.3281C1.76953 13.3398 1.66113 13.3164 1.56152 13.2578C1.46191 13.1934 1.39453 13.0996 1.35938 12.9766C1.31836 12.8594 1.31543 12.748 1.35059 12.6426C1.38574 12.5371 1.4502 12.4463 1.54395 12.3701L2.33496 11.7373C2.28223 11.5322 2.23828 11.3271 2.20312 11.1221C2.16797 10.9111 2.14453 10.6943 2.13281 10.4717L1.15723 10.1641C1.03418 10.1289 0.94043 10.0674 0.875977 9.97949C0.811523 9.88574 0.779297 9.77734 0.779297 9.6543C0.779297 9.52539 0.811523 9.41699 0.875977 9.3291C0.94043 9.24121 1.03418 9.17969 1.15723 9.14453L2.13281 8.83691C2.14453 8.61426 2.16797 8.40039 2.20312 8.19531C2.23828 7.98438 2.28223 7.77637 2.33496 7.57129L1.54395 6.92969C1.4502 6.85938 1.38574 6.77148 1.35059 6.66602C1.31543 6.56055 1.31836 6.45215 1.35938 6.34082C1.39453 6.21777 1.46191 6.12695 1.56152 6.06836C1.66113 6.00391 1.76953 5.97754 1.88672 5.98926L2.90625 6.01562C3.00586 5.82227 3.10547 5.63477 3.20508 5.45312C3.31055 5.27148 3.42188 5.08984 3.53906 4.9082L2.99414 4.03809C2.93555 3.93848 2.90918 3.83301 2.91504 3.72168C2.92676 3.61035 2.96777 3.51074 3.03809 3.42285C3.12598 3.31738 3.22266 3.25293 3.32812 3.22949C3.43945 3.2002 3.55664 3.20898 3.67969 3.25586L4.61133 3.625C4.76367 3.49023 4.92188 3.35547 5.08594 3.2207C5.25 3.08008 5.41406 2.94824 5.57812 2.8252L5.38477 1.84082C5.35547 1.71191 5.36133 1.59473 5.40234 1.48926C5.44336 1.38379 5.51367 1.30469 5.61328 1.25195C5.73047 1.1875 5.84473 1.16406 5.95605 1.18164C6.07324 1.19336 6.17871 1.24316 6.27246 1.33105L7.01953 1.98145C7.21875 1.90527 7.41504 1.83203 7.6084 1.76172C7.80762 1.68555 8.00977 1.61816 8.21484 1.55957L8.37305 0.557617C8.39648 0.43457 8.44336 0.332031 8.51367 0.25C8.58984 0.167969 8.68652 0.115234 8.80371 0.0917969C8.92676 0.0683594 9.03809 0.0830078 9.1377 0.135742C9.2373 0.182617 9.31348 0.255859 9.36621 0.355469L9.84961 1.27832C9.96094 1.2666 10.0664 1.26074 10.166 1.26074C10.2715 1.25488 10.3799 1.25195 10.4912 1.25195C10.5967 1.25195 10.7021 1.25488 10.8076 1.26074C10.9131 1.26074 11.0186 1.2666 11.124 1.27832L11.6162 0.355469C11.6631 0.255859 11.7363 0.182617 11.8359 0.135742C11.9414 0.0830078 12.0557 0.0683594 12.1787 0.0917969C12.2959 0.115234 12.3926 0.167969 12.4688 0.25C12.5508 0.332031 12.5977 0.43457 12.6094 0.557617L12.7676 1.56836C12.9668 1.62109 13.166 1.68555 13.3652 1.76172C13.5645 1.83203 13.7607 1.90527 13.9541 1.98145L14.71 1.32227C14.7979 1.24023 14.8975 1.19336 15.0088 1.18164C15.126 1.16406 15.2432 1.1875 15.3604 1.25195C15.46 1.30469 15.5303 1.38379 15.5713 1.48926C15.6182 1.59473 15.627 1.71191 15.5977 1.84082L15.3955 2.8252C15.5596 2.94824 15.7236 3.08008 15.8877 3.2207C16.0576 3.35547 16.2158 3.49023 16.3623 3.625L17.3027 3.25586C17.4199 3.20898 17.5342 3.2002 17.6455 3.22949C17.7568 3.25293 17.8564 3.31738 17.9443 3.42285C18.0146 3.51074 18.0527 3.61035 18.0586 3.72168C18.0703 3.83301 18.0439 3.93848 17.9795 4.03809L17.4434 4.9082C17.6719 5.25977 17.8828 5.62891 18.0762 6.01562L19.0957 5.98926C19.2129 5.97754 19.3213 6.00391 19.4209 6.06836C19.5205 6.12695 19.5879 6.21777 19.623 6.34082C19.6641 6.45215 19.6641 6.56055 19.623 6.66602C19.5879 6.77148 19.5264 6.85938 19.4385 6.92969L18.6475 7.57129C18.7002 7.77637 18.7441 7.98438 18.7793 8.19531C18.8145 8.40039 18.8408 8.61426 18.8584 8.83691L19.8164 9.14453C20.0859 9.23242 20.2207 9.40234 20.2207 9.6543C20.2207 9.90625 20.0859 10.0762 19.8164 10.1641L18.8584 10.4717C18.8408 10.6943 18.8145 10.9111 18.7793 11.1221C18.7441 11.3271 18.7002 11.5322 18.6475 11.7373L19.4385 12.3701C19.5264 12.4463 19.5879 12.54 19.623 12.6514C19.6641 12.7568 19.6641 12.8652 19.623 12.9766C19.5879 13.0996 19.5205 13.1934 19.4209 13.2578C19.3213 13.3164 19.2129 13.3398 19.0957 13.3281L18.0762 13.293C17.9766 13.4863 17.874 13.6768 17.7686 13.8643C17.6689 14.0459 17.5605 14.2217 17.4434 14.3916L17.9795 15.2617C18.0439 15.3672 18.0703 15.4785 18.0586 15.5957C18.0527 15.707 18.0146 15.8066 17.9443 15.8945C17.8564 16 17.7568 16.0674 17.6455 16.0967C17.5342 16.126 17.417 16.1143 17.2939 16.0615L16.3623 15.6748C16.2158 15.8213 16.0576 15.9619 15.8877 16.0967C15.7236 16.2314 15.5596 16.3604 15.3955 16.4834L15.5977 17.4766C15.668 17.7344 15.5889 17.9307 15.3604 18.0654C15.2432 18.1299 15.126 18.1533 15.0088 18.1357C14.8975 18.1182 14.7979 18.0684 14.71 17.9863L13.9541 17.3184C13.7607 17.4004 13.5645 17.4766 13.3652 17.5469C13.166 17.623 12.9668 17.6875 12.7676 17.7402L12.6094 18.7598C12.5977 18.8828 12.5508 18.9854 12.4688 19.0674C12.3926 19.1494 12.2959 19.2021 12.1787 19.2256C12.0557 19.249 11.9443 19.2344 11.8447 19.1816C11.7451 19.1348 11.6689 19.0586 11.6162 18.9531L11.124 18.0303C11.0186 18.042 10.9131 18.0479 10.8076 18.0479C10.7021 18.0537 10.5967 18.0566 10.4912 18.0566ZM10.4912 16.6416C11.4697 16.6416 12.3779 16.4629 13.2158 16.1055C14.0537 15.748 14.7861 15.25 15.4131 14.6113C16.04 13.9727 16.5264 13.2314 16.8721 12.3877C17.2236 11.5439 17.3994 10.6357 17.3994 9.66309C17.3994 8.69043 17.2236 7.78223 16.8721 6.93848C16.5264 6.08887 16.04 5.34473 15.4131 4.70605C14.7861 4.06738 14.0537 3.56934 13.2158 3.21191C12.3779 2.84863 11.4697 2.66699 10.4912 2.66699C9.51855 2.66699 8.61328 2.84863 7.77539 3.21191C6.9375 3.56934 6.20508 4.06738 5.57812 4.70605C4.95703 5.34473 4.4707 6.08887 4.11914 6.93848C3.77344 7.78223 3.60059 8.69043 3.60059 9.66309C3.60059 10.6357 3.77344 11.5439 4.11914 12.3877C4.4707 13.2314 4.95703 13.9727 5.57812 14.6113C6.20508 15.25 6.9375 15.748 7.77539 16.1055C8.61328 16.4629 9.51855 16.6416 10.4912 16.6416ZM8.96191 8.30957L5.98242 3.2207L7.06348 2.61426L9.99902 7.65039L8.96191 8.30957ZM12.4512 10.252V9.03906H18.2959V10.252H12.4512ZM10.0166 11.6846L6.9668 16.6943L5.89453 16.0615L8.98828 11.0166L10.0166 11.6846ZM10.4736 11.9658C10.0459 11.9658 9.65918 11.8633 9.31348 11.6582C8.96777 11.4531 8.69238 11.1777 8.4873 10.832C8.28223 10.4805 8.17969 10.0938 8.17969 9.67188C8.17969 9.24414 8.28223 8.85742 8.4873 8.51172C8.69238 8.16602 8.96777 7.89062 9.31348 7.68555C9.65918 7.47461 10.0459 7.36914 10.4736 7.36914C10.8955 7.36914 11.2793 7.47461 11.625 7.68555C11.9766 7.89062 12.2549 8.16602 12.46 8.51172C12.6709 8.85742 12.7764 9.24414 12.7764 9.67188C12.7764 10.0938 12.6709 10.4805 12.46 10.832C12.2549 11.1777 11.9766 11.4531 11.625 11.6582C11.2793 11.8633 10.8955 11.9658 10.4736 11.9658ZM10.4736 10.6475C10.7549 10.6475 10.9893 10.5566 11.1768 10.375C11.3701 10.1875 11.4668 9.95312 11.4668 9.67188C11.4668 9.39062 11.3701 9.15625 11.1768 8.96875C10.9893 8.77539 10.7549 8.67871 10.4736 8.67871C10.1982 8.67871 9.96387 8.77539 9.77051 8.96875C9.58301 9.15625 9.48926 9.39062 9.48926 9.67188C9.48926 9.95312 9.58301 10.1875 9.77051 10.375C9.96387 10.5566 10.1982 10.6475 10.4736 10.6475Z" fill="#1A1A1A"/>
</svg>
